# xmcd
#
# Track frame offsets: 
#        150
#        19162
#        35807
#        53130
#        66017
#        88512
#        104941
#        121525
#        139308
#        157342
#
# Disc length: 2271 seconds
#
# Revision: 0
# Processed by: cddbd v1.5.2PL0 Copyright (c) Steve Scherf et al.
# Submitted via: ExactAudioCopy v1.3
#
DISCID=8f08dd0a
DTITLE=Cirkus Prutz - White Jazz - Black Magic
DYEAR=2019
DGENRE=Blues Rock
TTITLE0=Leave Me Alone
TTITLE1=Mojo
TTITLE2=Shotgun Wedding Blues
TTITLE3=Aim To Please
TTITLE4=Blues For Fallen Brothers
TTITLE5=Hell To Pay
TTITLE6=Ready To Go
TTITLE7=Friends
TTITLE8=Hats'n'Strats
TTITLE9=Zombie Stomp
EXTD=
EXTT0=
EXTT1=
EXTT2=
EXTT3=
EXTT4=
EXTT5=
EXTT6=
EXTT7=
EXTT8=
EXTT9=
PLAYORDER=
